<svg width="28" height="28" viewBox="0 0 28 28" fill="none" xmlns="http://www.w3.org/2000/svg">
<path d="M9.72214 25.2522C9.62828 25.2522 9.53605 25.2276 9.45459 25.181C9.37313 25.1343 9.30529 25.0672 9.25777 24.9863C7.24506 21.5573 1.88171 14.2595 1.82776 14.1862C1.75113 14.082 1.71454 13.9538 1.72468 13.8248C1.73483 13.6959 1.79102 13.575 1.883 13.4841L3.53167 11.855C3.62123 11.7665 3.73899 11.7121 3.86446 11.7015C3.98993 11.6908 4.11518 11.7244 4.21842 11.7965L9.60987 15.5612C13.1943 10.9565 16.5253 7.77865 18.7147 5.9062C21.1688 3.80712 22.729 2.8639 22.7942 2.82459C22.8779 2.77435 22.9737 2.74781 23.0713 2.7478H25.7384C25.8476 2.74778 25.9542 2.78095 26.0441 2.8429C26.1339 2.90484 26.2029 2.99265 26.2417 3.09467C26.2806 3.19669 26.2875 3.30811 26.2616 3.41415C26.2356 3.5202 26.1781 3.61585 26.0965 3.68844C22.1426 7.20998 18.0317 12.8053 15.2795 16.8789C12.2876 21.3069 10.2107 24.9439 10.1901 24.9802C10.1433 25.0623 10.0758 25.1306 9.99428 25.1783C9.91278 25.226 9.82015 25.2515 9.7257 25.2521L9.72214 25.2522Z" fill="white"/>
</svg>
