<svg width="33" height="33" viewBox="0 0 33 33" fill="none" xmlns="http://www.w3.org/2000/svg">
<g clip-path="url(#clip0_1_2020)">
<path d="M33 16.5C33 25.6101 25.6169 32.9959 16.5076 33H16.3295C15.5297 32.9917 14.7315 32.9257 13.9411 32.8027C13.2939 32.7027 12.6534 32.5635 12.023 32.3861C8.56196 31.4094 5.51458 29.3291 3.34435 26.4616C1.17413 23.5941 -0.000193759 20.0962 2.39792e-08 16.5C2.39792e-08 7.38857 7.38513 6.5826e-06 16.5 6.5826e-06H16.5076C18.7523 -0.00200153 20.9737 0.455462 23.035 1.34424C25.0963 2.23301 26.9539 3.53428 28.4934 5.16794C31.3889 8.23038 33.0016 12.2855 33 16.5Z" fill="white"/>
<path d="M12.3359 11.5926V12.3351H9.93721L3.19971 6.73266C3.61616 6.16615 4.06855 5.62696 4.55408 5.11841L12.3359 11.5926Z" fill="#C8102E"/>
<path d="M29.8216 6.76292L23.1232 12.3317H20.6641V11.6428L28.4727 5.14661L28.4933 5.16792C28.9434 5.64239 29.3644 6.14357 29.7542 6.66873L29.8216 6.76292Z" fill="#C8102E"/>
<path d="M12.3357 20.6635V21.406L4.55388 27.8815C4.48513 27.8128 4.41638 27.7385 4.35176 27.6663C3.94241 27.2216 3.55797 26.7545 3.2002 26.2673L9.93769 20.6635H12.3357Z" fill="#C8102E"/>
<path d="M29.8222 26.2363C29.4075 26.8033 28.9569 27.3431 28.4734 27.8526L20.6641 21.3558V20.6635H23.1232L29.8222 26.2363Z" fill="#C8102E"/>
<path d="M6.58965 12.3351H0.530029C0.874279 11.015 1.38239 9.74305 2.04253 8.54907L6.58965 12.3351Z" fill="#012169"/>
<path d="M6.45284 20.6635L1.99372 24.3718C1.35649 23.2 0.864945 21.9546 0.530029 20.6635H6.45284Z" fill="#012169"/>
<path d="M12.3357 24.1505V32.4693C12.2312 32.4424 12.1295 32.4143 12.0229 32.3847C9.86091 31.7759 7.84658 30.7304 6.10425 29.3129L12.3357 24.1505Z" fill="#012169"/>
<path d="M12.3357 0.530029V8.71815L6.19702 3.6114C8.0035 2.16357 10.0954 1.11353 12.3357 0.530029Z" fill="#012169"/>
<path d="M26.8969 3.68845L20.6641 8.85501V0.530762L20.7582 0.554824C23.003 1.15364 25.0953 2.22167 26.8969 3.68845Z" fill="#012169"/>
<path d="M32.4699 12.335H26.5574L31.0062 8.63354C31.6428 9.80327 32.1343 11.0463 32.4699 12.335Z" fill="#012169"/>
<path d="M26.9499 29.2724C25.1114 30.7797 22.9681 31.8706 20.6675 32.47V24.046L26.9499 29.2724Z" fill="#012169"/>
<path d="M32.4698 20.6635C32.1421 21.9234 31.6655 23.1399 31.0501 24.2873L26.6948 20.6635H32.4698Z" fill="#012169"/>
<path d="M33 16.3274V16.6567C32.9929 17.4261 32.9325 18.1941 32.8192 18.9551H18.9551V32.8185C18.1988 32.9313 17.4357 32.992 16.6712 33H16.3274C15.5626 32.9921 14.7993 32.9312 14.0429 32.8178V18.9551H0.1815C0.0686829 18.1979 0.00804003 17.4339 0 16.6684C0 16.5605 0 16.4519 0 16.3433C0.00711239 15.5737 0.0675278 14.8055 0.180813 14.0443H14.0449V0.1815C14.7649 0.0738678 15.491 0.0132394 16.2188 0L16.7509 0C17.4455 0.00993026 18.1387 0.0636619 18.8265 0.160875L18.9551 0.180125V14.0443H32.8185C32.9313 14.8002 32.992 15.5631 33 16.3274Z" fill="#C8102E"/>
</g>
<defs>
<clipPath id="clip0_1_2020">
<rect width="33" height="33" fill="white"/>
</clipPath>
</defs>
</svg>
